<svg version="1.1" id="Layer_1" xmlns="http://www.w3.org/2000/svg" xmlns:xlink="http://www.w3.org/1999/xlink" x="0px" y="0px"
	 width="100%" viewBox="0 0 500 500" enable-background="new 0 0 500 500" xml:space="preserve">
<path fill="#FFFFFF" opacity="1.000000" stroke="none" 
	d="
M279.000000,501.000000 
	C186.000015,501.000000 93.500046,501.000000 1.000050,501.000000 
	C1.000033,334.333405 1.000033,167.666794 1.000017,1.000139 
	C167.666565,1.000093 334.333130,1.000093 500.999756,1.000046 
	C500.999847,167.666519 500.999847,334.333038 500.999939,500.999786 
	C427.166656,501.000000 353.333344,501.000000 279.000000,501.000000 
M314.492584,289.610962 
	C317.864288,290.775635 321.389069,290.447754 322.472443,286.968567 
	C323.179504,284.698059 321.541931,281.697449 320.787506,278.616241 
	C315.935059,276.582977 312.646149,277.824738 312.731415,281.363007 
	C315.044403,280.908783 317.391663,280.447815 320.291168,280.742035 
	C320.305359,282.857361 321.158539,285.793427 320.108063,286.867279 
	C318.957275,288.043640 316.049164,287.500885 313.900818,287.080322 
	C313.053833,286.998077 312.206818,286.915833 311.359833,286.833588 
	C312.241425,287.555573 313.123016,288.277527 314.492584,289.610962 
M302.596619,286.720551 
	C302.614380,286.332428 302.632111,285.944336 302.649841,285.556213 
	C302.433228,285.704102 302.216614,285.851959 301.288300,286.269623 
	C299.051147,286.799744 295.597412,288.456909 294.828522,287.626862 
	C293.195984,285.864624 292.961090,282.807617 292.253326,280.594452 
	C290.068817,282.567444 289.763458,285.653625 292.089081,288.212219 
	C294.779755,291.172424 298.744476,290.687836 302.596619,286.720551 
M280.816071,279.622498 
	C288.938354,279.697021 283.014923,287.275055 287.225220,290.718933 
	C287.225220,287.798950 287.311859,285.623993 287.208191,283.458160 
	C286.949829,278.061646 284.354309,276.676300 278.181274,278.771576 
	C277.450104,278.857758 276.083252,278.924225 276.079865,279.033020 
	C275.968506,282.624420 275.987732,286.219940 275.987732,289.814819 
	C276.261169,289.792023 276.534576,289.769226 276.808014,289.746399 
	C277.852448,286.407013 278.896912,283.067596 280.816071,279.622498 
M334.799774,288.863037 
	C336.099854,291.499908 335.344971,292.828064 332.229340,292.889832 
	C330.493134,292.924255 328.746979,292.454712 327.005310,292.212250 
	C326.976227,292.840576 326.947113,293.468872 326.918030,294.097198 
	C329.610199,294.097198 332.758789,294.950836 334.852509,293.831451 
	C336.577759,292.909058 337.553436,289.735596 337.957214,287.403198 
	C338.473663,284.420227 338.082550,281.280121 338.082550,278.307281 
	C336.377136,278.307281 335.176910,278.307281 333.209076,277.990204 
	C330.841095,278.998016 327.844452,279.462219 326.332794,281.210480 
	C325.372498,282.321014 325.849915,286.225494 327.067322,287.283142 
	C328.657471,288.664642 331.616730,288.470245 334.799774,288.863037 
M96.727051,322.263519 
	C102.150314,315.365723 101.150810,309.218719 94.209625,304.523773 
	C92.980042,303.692108 92.110031,301.438782 92.097450,299.833893 
	C91.952408,281.339630 92.004890,262.843842 92.004875,244.348434 
	C92.004868,235.719238 92.004875,227.090027 92.004875,218.391785 
	C93.953461,218.391785 95.459274,218.391785 97.282166,218.391785 
	C97.282166,223.717514 97.282166,228.665695 97.282166,233.819138 
	C99.988525,233.968246 102.386986,234.100388 105.026588,234.245804 
	C105.026588,249.901993 105.085007,265.209625 104.914154,280.514709 
	C104.900681,281.721558 103.532082,283.259705 102.383972,284.046906 
	C97.675224,287.275360 95.741478,291.963531 97.375450,296.962189 
	C98.931244,301.721649 102.663612,304.098328 108.085434,304.177155 
	C113.171677,304.251038 116.327194,301.594452 117.886703,297.182526 
	C119.809509,291.742798 117.698265,287.107178 112.768867,283.909332 
	C111.614937,283.160767 110.237206,281.605621 110.229103,280.412933 
	C110.077759,258.137970 110.117935,235.861679 110.117935,213.302185 
	C112.295952,213.302185 113.504974,213.302185 115.210220,213.302185 
	C115.210220,220.049637 115.210220,226.624420 115.210220,233.413956 
	C118.268944,233.590775 120.860329,233.740601 123.735695,233.906830 
	C123.735695,241.161301 123.623886,247.973877 123.786598,254.779877 
	C123.859314,257.821533 123.330925,259.811829 120.263161,261.506012 
	C116.019333,263.849670 114.497757,269.676636 116.329056,274.297150 
	C118.077362,278.708252 121.341110,281.056946 126.332909,281.077942 
	C131.628387,281.100189 134.781418,278.332428 136.512833,273.776215 
	C138.745026,267.902222 135.888687,263.018372 128.833725,259.361298 
	C128.833725,242.102814 128.886215,225.141052 128.792236,208.180099 
	C128.771912,204.510513 130.369049,204.504059 133.274414,205.671265 
	C133.274414,214.877441 133.274414,223.990570 133.274414,233.344131 
	C136.158981,233.558884 138.746948,233.751556 141.735733,233.974060 
	C141.735733,236.055984 141.735733,237.852249 141.735733,239.648499 
	C141.735733,266.475159 141.710007,293.301880 141.770706,320.128387 
	C141.777725,323.227753 141.677475,325.526367 138.235748,327.367065 
	C133.768280,329.756317 132.527588,335.777527 134.415237,340.631042 
	C135.987534,344.673706 140.652176,347.403351 145.286407,346.992584 
	C149.875046,346.585846 153.937119,343.112640 154.889648,338.781525 
	C155.972702,333.856934 153.897125,328.610840 149.273499,326.602081 
	C146.606293,325.443329 146.047073,324.069458 146.068054,321.456482 
	C146.363525,284.657410 146.562393,247.857574 146.803589,211.058044 
	C146.807632,210.442780 147.046570,209.829056 147.231308,208.951370 
	C148.642410,209.128143 149.845367,209.278839 151.328568,209.464661 
	C151.328568,217.604294 151.328568,225.379013 151.328568,233.411880 
	C154.569427,233.568054 157.504333,233.709488 160.559479,233.856705 
	C160.698944,234.708801 160.893311,235.344162 160.893875,235.979691 
	C160.912140,256.474579 160.971573,276.970001 160.782104,297.463135 
	C160.769196,298.859650 159.138824,300.637817 157.794098,301.552795 
	C153.346893,304.578857 151.427612,309.307770 152.933228,314.588379 
	C154.070786,318.578125 158.792801,322.003693 163.139755,321.992706 
	C167.626892,321.981354 172.318893,318.441956 173.608109,314.095856 
	C174.930893,309.636627 173.222702,304.249969 168.810730,302.065735 
	C165.570267,300.461548 165.320694,298.347168 165.332184,295.387939 
	C165.405914,276.392975 165.324341,257.397339 165.407074,238.402420 
	C165.424149,234.481735 165.918900,230.563141 166.188553,226.713959 
	C173.065887,225.495728 168.668320,231.656647 172.062225,233.865097 
	C176.330292,233.865097 181.650650,234.143753 186.932526,233.811188 
	C200.995026,232.925766 210.073013,220.180298 205.891388,207.084793 
	C202.930008,197.810776 195.942917,193.399170 186.472809,192.710693 
	C185.235519,174.522888 176.663239,161.618912 159.126221,156.753891 
	C138.054291,150.908188 123.155495,160.212143 113.183708,178.538223 
	C98.102402,172.836243 83.125130,175.693420 72.883949,193.821457 
	C63.375118,191.546249 54.913639,193.286133 49.127499,201.771957 
	C44.675911,208.300552 44.421692,215.560059 47.976234,222.635117 
	C51.667637,229.982559 58.003590,233.577072 66.102592,233.832413 
	C72.875473,234.045944 79.660431,233.876236 86.914459,233.876236 
	C86.914459,245.614777 86.914459,257.072327 86.914459,268.529877 
	C86.914459,280.186707 86.914459,291.843536 86.914459,303.392090 
	C79.082153,307.362457 76.486588,313.846985 80.089149,320.022125 
	C83.284744,325.499695 89.876640,326.638367 96.727051,322.263519 
M245.404999,220.528870 
	C243.003571,218.403107 240.882584,215.036835 238.140701,214.416992 
	C232.881134,213.227982 227.270203,213.492386 221.802277,213.439148 
	C221.019623,213.431534 219.549179,215.002350 219.533783,215.862991 
	C219.368027,225.129303 219.430496,234.399689 219.430496,243.741425 
	C222.148911,243.741425 224.241913,243.741425 226.578110,243.741425 
	C226.779022,241.069412 226.961090,238.648041 227.135925,236.322983 
	C231.337326,234.683167 234.184128,235.950241 235.927597,239.653961 
	C237.988724,244.032501 241.350647,244.857178 246.070465,243.483017 
	C244.060944,240.343399 242.158005,237.370316 240.193558,234.301102 
	C245.456528,231.168472 246.813965,226.709595 245.404999,220.528870 
M261.814453,234.147614 
	C265.760162,234.147614 269.705841,234.147614 273.571869,234.147614 
	C274.378143,226.672043 271.422943,222.152847 265.104614,220.495453 
	C258.982391,218.889526 252.601273,221.937546 250.227295,227.601837 
	C247.906036,233.140350 249.910797,239.398376 254.964569,242.389648 
	C260.792236,245.838943 268.318359,244.879074 271.830627,240.294296 
	C270.563995,237.010040 268.540680,236.982193 265.532745,238.210220 
	C262.040283,239.636093 258.822845,238.918854 256.703400,234.496399 
	C258.430054,234.353470 259.671783,234.250671 261.814453,234.147614 
M442.158936,244.156357 
	C446.576294,244.642349 450.725220,244.296082 453.814667,240.591629 
	C452.436188,237.548004 450.764496,236.734222 447.518585,238.143005 
	C443.244141,239.998169 440.639496,238.643326 438.837982,234.091751 
	C444.597046,234.091751 450.112549,234.091751 455.563324,234.091751 
	C456.091705,226.044724 452.171265,221.008972 445.292694,220.172562 
	C438.658356,219.365860 432.338684,223.785889 431.197205,230.031052 
	C429.978699,236.697540 433.896057,242.089279 442.158936,244.156357 
M302.865509,237.227539 
	C307.920746,245.352448 317.860870,246.949493 324.343201,240.610825 
	C323.209167,237.689911 321.634613,236.770248 318.342010,238.144073 
	C313.858032,240.015015 311.025635,238.527359 309.447021,233.930084 
	C315.187042,233.930084 320.765045,233.930084 326.288116,233.930084 
	C326.840546,226.953568 324.156403,222.655670 318.441681,220.818558 
	C308.186127,217.521713 300.439575,225.164459 302.865509,237.227539 
M353.654083,221.944290 
	C348.537567,225.046173 347.097809,229.817795 348.239166,235.286560 
	C349.249512,240.127518 352.696411,243.038712 357.511810,243.945267 
	C362.290192,244.844833 366.942230,244.726471 370.528442,240.614639 
	C367.790802,237.167603 367.790802,237.167618 364.432129,238.229248 
	C359.777557,239.700500 357.106903,238.561310 355.479340,234.144043 
	C358.391815,234.144043 361.194641,234.144058 363.997498,234.144058 
	C366.767029,234.144058 369.536560,234.144043 372.233063,234.144043 
	C373.240875,223.170944 365.133575,217.803131 353.654083,221.944290 
M376.958191,222.065140 
	C376.958191,229.323257 376.958191,236.581375 376.958191,243.659790 
	C379.646393,243.659790 381.566223,243.659790 383.858948,243.659790 
	C383.858948,240.012405 383.949524,236.702881 383.835876,233.400360 
	C383.696716,229.357971 384.955322,226.165161 389.449768,226.232513 
	C393.732452,226.296707 394.057587,229.749435 394.007263,233.134628 
	C393.955841,236.595032 393.995880,240.056793 393.995880,243.655945 
	C396.534668,243.655945 398.567596,243.655945 400.943481,243.655945 
	C400.943481,239.663818 400.950287,236.022644 400.939575,232.381516 
	C400.936157,231.215500 400.972961,230.039825 400.842377,228.885437 
	C400.366943,224.682678 398.313660,221.054794 394.072693,220.693222 
	C388.488708,220.217194 382.798279,220.989914 376.958191,222.065140 
M413.716980,228.537643 
	C415.879120,225.800339 418.909760,224.664993 421.514313,226.934998 
	C424.935638,229.916855 426.645111,227.602371 428.978394,225.960632 
	C425.396362,220.547791 420.316956,218.890030 414.129089,220.891663 
	C408.740021,222.634918 405.415405,227.074387 405.517029,232.391647 
	C405.621948,237.879730 409.421906,242.589966 414.824615,243.928757 
	C421.127808,245.490707 425.838318,243.679779 429.174255,237.876297 
	C427.056427,237.389511 425.140900,236.598877 423.222626,236.592148 
	C420.487366,236.582520 416.802673,238.352066 415.267639,237.144501 
	C413.573517,235.811813 413.850311,231.973724 413.716980,228.537643 
M294.708313,237.303024 
	C296.968231,231.846436 299.228180,226.389832 301.500214,220.903946 
	C296.927002,219.414368 294.451538,220.648712 293.117493,224.865311 
	C291.975006,228.476486 290.206177,231.889526 288.385864,236.161072 
	C286.630432,231.864944 284.954041,228.579056 283.946960,225.099472 
	C282.559631,220.306061 279.703491,219.444183 275.020752,220.981628 
	C277.980804,228.048828 280.767242,234.942383 283.813202,241.719269 
	C284.280396,242.758682 285.847076,243.609924 287.071320,243.949707 
	C292.167328,245.364059 293.110870,241.443436 294.708313,237.303024 
M334.513184,244.014954 
	C339.191284,244.615280 337.943909,241.155853 337.966827,238.786392 
	C338.068573,228.261551 338.030090,228.261185 345.581421,225.879166 
	C345.581421,224.117035 345.581421,222.346268 345.581421,221.118073 
	C340.689270,221.118073 336.103363,221.118073 331.043549,221.118073 
	C331.043549,227.096054 331.042816,233.216385 331.044373,239.336731 
	C331.044586,240.169281 330.753479,241.195633 331.133362,241.789124 
	C331.708435,242.687592 332.754242,243.284790 334.513184,244.014954 
M236.968567,289.991150 
	C239.076691,289.655182 241.184830,289.319244 243.292953,288.983307 
	C243.224930,288.513275 243.156921,288.043213 243.088898,287.573181 
	C240.155975,287.815308 236.652969,289.969116 234.685120,285.003082 
	C238.092590,284.805969 241.087738,284.632721 244.085220,284.459320 
	C243.578979,278.847656 240.144943,276.380707 235.927460,278.237976 
	C231.339386,280.258453 231.485901,286.097595 236.968567,289.991150 
M260.305573,277.135681 
	C260.305573,281.276947 260.305573,285.418243 260.305573,289.559509 
	C260.903259,289.555481 261.500946,289.551483 262.098633,289.547455 
	C262.098633,287.674347 261.548615,285.556152 262.244995,283.993347 
	C263.025452,282.241943 264.933777,280.993164 266.351349,279.525696 
	C267.536469,281.004425 269.207367,282.320099 269.773438,284.006622 
	C270.368683,285.780029 269.906738,287.908295 269.906738,289.881500 
	C274.094452,281.471558 271.361725,277.563873 262.592407,277.980865 
	C262.141083,276.603760 261.689789,275.226624 261.238495,273.849518 
	C260.927582,273.910248 260.616699,273.971008 260.305786,274.031738 
	C260.305786,274.797607 260.305786,275.563477 260.305573,277.135681 
M228.194397,273.829620 
	C225.469971,273.829620 222.745544,273.829620 220.021118,273.829620 
	C220.000702,274.202301 219.980286,274.575012 219.959869,274.947693 
	C221.601028,275.313995 223.242172,275.680267 225.645264,276.216614 
	C225.645264,280.772034 225.645264,285.366486 225.645264,289.960907 
	C226.158066,289.948761 226.670883,289.936615 227.183685,289.924469 
	C227.183685,285.295776 227.183685,280.667053 227.183685,276.144531 
	C229.557419,275.646271 231.199219,275.301666 232.841019,274.957062 
	C232.825272,274.690247 232.809540,274.423462 232.793793,274.156677 
	C231.544281,274.047821 230.294754,273.938934 228.194397,273.829620 
M345.252075,285.067444 
	C344.106476,282.655548 342.960876,280.243622 341.815277,277.831726 
	C341.397919,278.021057 340.980530,278.210388 340.563141,278.399719 
	C342.285217,282.615326 344.007294,286.830902 346.252991,292.328339 
	C348.514435,287.320068 350.350647,283.253540 352.186859,279.187012 
	C351.731506,278.966980 351.276154,278.746948 350.820770,278.526886 
	C349.686859,280.951752 348.593323,283.397675 347.354340,285.767609 
	C347.235168,285.995575 346.212036,285.750977 345.252075,285.067444 
M247.319824,287.230011 
	C251.548325,291.275574 254.558182,291.333893 255.978088,288.620331 
	C253.705444,287.788818 250.229279,287.603241 249.167633,285.906708 
	C246.821259,282.157135 249.657272,279.879822 254.221039,278.790192 
	C248.123474,278.925690 245.222565,280.933167 247.319824,287.230011 
M307.788208,288.981354 
	C307.788208,283.676453 307.788208,278.371552 307.788208,273.066650 
	C307.173096,273.097687 306.557983,273.128693 305.942871,273.159729 
	C305.942871,278.229584 305.907349,283.300140 306.002045,288.368225 
	C306.010773,288.836090 306.848785,289.288452 307.788208,288.981354 
M302.721283,281.558350 
	C300.701233,280.110382 298.681152,278.662445 296.661133,277.214508 
	C296.210785,277.881714 295.760437,278.548920 295.310059,279.216095 
	C297.760559,280.229492 300.211060,281.242859 302.721283,281.558350 
M257.131866,280.368500 
	C257.050629,280.368622 256.969360,280.368744 257.131866,280.368500 
M345.397491,292.887115 
	C345.451813,292.866486 345.506134,292.845825 345.560455,292.825195 
	C345.560547,292.937775 345.560638,293.050354 345.560730,293.162933 
	C345.506256,293.142334 345.451752,293.121704 345.397491,292.887115 
z"/>
<path fill="#1C466E" opacity="1.000000" stroke="none" 
	d="
M96.448135,322.531677 
	C89.876640,326.638367 83.284744,325.499695 80.089149,320.022125 
	C76.486588,313.846985 79.082153,307.362457 86.914459,303.392090 
	C86.914459,291.843536 86.914459,280.186707 86.914459,268.529877 
	C86.914459,257.072327 86.914459,245.614777 86.914459,233.876236 
	C79.660431,233.876236 72.875473,234.045944 66.102592,233.832413 
	C58.003590,233.577072 51.667637,229.982559 47.976234,222.635117 
	C44.421692,215.560059 44.675911,208.300552 49.127499,201.771957 
	C54.913639,193.286133 63.375118,191.546249 72.883949,193.821457 
	C83.125130,175.693420 98.102402,172.836243 113.183708,178.538223 
	C123.155495,160.212143 138.054291,150.908188 159.126221,156.753891 
	C176.663239,161.618912 185.235519,174.522888 186.472809,192.710693 
	C195.942917,193.399170 202.930008,197.810776 205.891388,207.084793 
	C210.073013,220.180298 200.995026,232.925766 186.932526,233.811188 
	C181.650650,234.143753 176.330292,233.865097 172.062225,233.865097 
	C168.668320,231.656647 173.065887,225.495728 166.188553,226.713959 
	C165.918900,230.563141 165.424149,234.481735 165.407074,238.402420 
	C165.324341,257.397339 165.405914,276.392975 165.332184,295.387939 
	C165.320694,298.347168 165.570267,300.461548 168.810730,302.065735 
	C173.222702,304.249969 174.930893,309.636627 173.608109,314.095856 
	C172.318893,318.441956 167.626892,321.981354 163.139755,321.992706 
	C158.792801,322.003693 154.070786,318.578125 152.933228,314.588379 
	C151.427612,309.307770 153.346893,304.578857 157.794098,301.552795 
	C159.138824,300.637817 160.769196,298.859650 160.782104,297.463135 
	C160.971573,276.970001 160.912140,256.474579 160.893875,235.979691 
	C160.893311,235.344162 160.698944,234.708801 160.559479,233.856705 
	C157.504333,233.709488 154.569427,233.568054 151.328568,233.411880 
	C151.328568,225.379013 151.328568,217.604294 151.328568,209.464661 
	C149.845367,209.278839 148.642410,209.128143 147.231308,208.951370 
	C147.046570,209.829056 146.807632,210.442780 146.803589,211.058044 
	C146.562393,247.857574 146.363525,284.657410 146.068054,321.456482 
	C146.047073,324.069458 146.606293,325.443329 149.273499,326.602081 
	C153.897125,328.610840 155.972702,333.856934 154.889648,338.781525 
	C153.937119,343.112640 149.875046,346.585846 145.286407,346.992584 
	C140.652176,347.403351 135.987534,344.673706 134.415237,340.631042 
	C132.527588,335.777527 133.768280,329.756317 138.235748,327.367065 
	C141.677475,325.526367 141.777725,323.227753 141.770706,320.128387 
	C141.710007,293.301880 141.735733,266.475159 141.735733,239.648499 
	C141.735733,237.852249 141.735733,236.055984 141.735733,233.974060 
	C138.746948,233.751556 136.158981,233.558884 133.274414,233.344131 
	C133.274414,223.990570 133.274414,214.877441 133.274414,205.671265 
	C130.369049,204.504059 128.771912,204.510513 128.792236,208.180099 
	C128.886215,225.141052 128.833725,242.102814 128.833725,259.361298 
	C135.888687,263.018372 138.745026,267.902222 136.512833,273.776215 
	C134.781418,278.332428 131.628387,281.100189 126.332909,281.077942 
	C121.341110,281.056946 118.077362,278.708252 116.329056,274.297150 
	C114.497757,269.676636 116.019333,263.849670 120.263161,261.506012 
	C123.330925,259.811829 123.859314,257.821533 123.786598,254.779877 
	C123.623886,247.973877 123.735695,241.161301 123.735695,233.906830 
	C120.860329,233.740601 118.268944,233.590775 115.210220,233.413956 
	C115.210220,226.624420 115.210220,220.049637 115.210220,213.302185 
	C113.504974,213.302185 112.295952,213.302185 110.117935,213.302185 
	C110.117935,235.861679 110.077759,258.137970 110.229103,280.412933 
	C110.237206,281.605621 111.614937,283.160767 112.768867,283.909332 
	C117.698265,287.107178 119.809509,291.742798 117.886703,297.182526 
	C116.327194,301.594452 113.171677,304.251038 108.085434,304.177155 
	C102.663612,304.098328 98.931244,301.721649 97.375450,296.962189 
	C95.741478,291.963531 97.675224,287.275360 102.383972,284.046906 
	C103.532082,283.259705 104.900681,281.721558 104.914154,280.514709 
	C105.085007,265.209625 105.026588,249.901993 105.026588,234.245804 
	C102.386986,234.100388 99.988525,233.968246 97.282166,233.819138 
	C97.282166,228.665695 97.282166,223.717514 97.282166,218.391785 
	C95.459274,218.391785 93.953461,218.391785 92.004875,218.391785 
	C92.004875,227.090027 92.004868,235.719238 92.004875,244.348434 
	C92.004890,262.843842 91.952408,281.339630 92.097450,299.833893 
	C92.110031,301.438782 92.980042,303.692108 94.209625,304.523773 
	C101.150810,309.218719 102.150314,315.365723 96.448135,322.531677 
z"/>
<path fill="#F3B43C" opacity="1.000000" stroke="none" 
	d="
M245.562073,220.901428 
	C246.813965,226.709595 245.456528,231.168472 240.193558,234.301102 
	C242.158005,237.370316 244.060944,240.343399 246.070465,243.483017 
	C241.350647,244.857178 237.988724,244.032501 235.927597,239.653961 
	C234.184128,235.950241 231.337326,234.683167 227.135925,236.322983 
	C226.961090,238.648041 226.779022,241.069412 226.578110,243.741425 
	C224.241913,243.741425 222.148911,243.741425 219.430496,243.741425 
	C219.430496,234.399689 219.368027,225.129303 219.533783,215.862991 
	C219.549179,215.002350 221.019623,213.431534 221.802277,213.439148 
	C227.270203,213.492386 232.881134,213.227982 238.140701,214.416992 
	C240.882584,215.036835 243.003571,218.403107 245.562073,220.901428 
M235.407806,229.346939 
	C238.534576,228.013031 239.904816,225.611069 238.340744,222.570312 
	C235.890198,217.806137 231.417297,219.343399 227.265427,219.349594 
	C227.265427,223.056152 227.265427,226.392624 227.265427,230.018600 
	C230.021133,229.881226 232.328857,229.766174 235.407806,229.346939 
z"/>
<path fill="#F3B53D" opacity="1.000000" stroke="none" 
	d="
M261.363953,234.147751 
	C259.671783,234.250671 258.430054,234.353470 256.703400,234.496399 
	C258.822845,238.918854 262.040283,239.636093 265.532745,238.210220 
	C268.540680,236.982193 270.563995,237.010040 271.830627,240.294296 
	C268.318359,244.879074 260.792236,245.838943 254.964569,242.389648 
	C249.910797,239.398376 247.906036,233.140350 250.227295,227.601837 
	C252.601273,221.937546 258.982391,218.889526 265.104614,220.495453 
	C271.422943,222.152847 274.378143,226.672043 273.571869,234.147614 
	C269.705841,234.147614 265.760162,234.147614 261.363953,234.147751 
M264.521240,226.039322 
	C261.023041,224.935944 258.147156,225.192596 256.694214,229.678040 
	C260.356689,229.678040 263.611053,229.678040 267.625793,229.678040 
	C266.493927,228.162201 265.845795,227.294174 264.521240,226.039322 
z"/>
<path fill="#F3B43C" opacity="1.000000" stroke="none" 
	d="
M441.773560,244.107071 
	C433.896057,242.089279 429.978699,236.697540 431.197205,230.031052 
	C432.338684,223.785889 438.658356,219.365860 445.292694,220.172562 
	C452.171265,221.008972 456.091705,226.044724 455.563324,234.091751 
	C450.112549,234.091751 444.597046,234.091751 438.837982,234.091751 
	C440.639496,238.643326 443.244141,239.998169 447.518585,238.143005 
	C450.764496,236.734222 452.436188,237.548004 453.814667,240.591629 
	C450.725220,244.296082 446.576294,244.642349 441.773560,244.107071 
M446.940094,230.106461 
	C447.279999,229.180984 448.191162,227.819595 447.869934,227.398651 
	C445.171570,223.862564 440.711792,224.927414 438.199799,230.115555 
	C441.007355,230.115555 443.549957,230.115555 446.940094,230.106461 
z"/>
<path fill="#F3B43C" opacity="1.000000" stroke="none" 
	d="
M302.709229,236.860962 
	C300.439575,225.164459 308.186127,217.521713 318.441681,220.818558 
	C324.156403,222.655670 326.840546,226.953568 326.288116,233.930084 
	C320.765045,233.930084 315.187042,233.930084 309.447021,233.930084 
	C311.025635,238.527359 313.858032,240.015015 318.342010,238.144073 
	C321.634613,236.770248 323.209167,237.689911 324.343201,240.610825 
	C317.860870,246.949493 307.920746,245.352448 302.709229,236.860962 
M309.391235,228.247147 
	C309.524872,228.800308 309.645142,229.832138 309.794037,229.836288 
	C313.092834,229.928238 316.394806,229.906631 320.088959,229.906631 
	C316.700623,224.488205 314.668945,224.151871 309.391235,228.247147 
z"/>
<path fill="#F3B43C" opacity="1.000000" stroke="none" 
	d="
M353.992249,221.761475 
	C365.133575,217.803131 373.240875,223.170944 372.233063,234.144043 
	C369.536560,234.144043 366.767029,234.144058 363.997498,234.144058 
	C361.194641,234.144058 358.391815,234.144043 355.479340,234.144043 
	C357.106903,238.561310 359.777557,239.700500 364.432129,238.229248 
	C367.790802,237.167618 367.790802,237.167603 370.528442,240.614639 
	C366.942230,244.726471 362.290192,244.844833 357.511810,243.945267 
	C352.696411,243.038712 349.249512,240.127518 348.239166,235.286560 
	C347.097809,229.817795 348.537567,225.046173 353.992249,221.761475 
M363.972992,226.555801 
	C358.801788,224.528076 357.025085,225.180573 355.357086,229.888428 
	C358.799866,229.888428 362.173248,229.888428 366.065674,229.888428 
	C365.424103,228.687592 364.988190,227.871750 363.972992,226.555801 
z"/>
<path fill="#F2B33A" opacity="1.000000" stroke="none" 
	d="
M377.055908,221.645416 
	C382.798279,220.989914 388.488708,220.217194 394.072693,220.693222 
	C398.313660,221.054794 400.366943,224.682678 400.842377,228.885437 
	C400.972961,230.039825 400.936157,231.215500 400.939575,232.381516 
	C400.950287,236.022644 400.943481,239.663818 400.943481,243.655945 
	C398.567596,243.655945 396.534668,243.655945 393.995880,243.655945 
	C393.995880,240.056793 393.955841,236.595032 394.007263,233.134628 
	C394.057587,229.749435 393.732452,226.296707 389.449768,226.232513 
	C384.955322,226.165161 383.696716,229.357971 383.835876,233.400360 
	C383.949524,236.702881 383.858948,240.012405 383.858948,243.659790 
	C381.566223,243.659790 379.646393,243.659790 376.958191,243.659790 
	C376.958191,236.581375 376.958191,229.323257 377.055908,221.645416 
z"/>
<path fill="#F3B53D" opacity="1.000000" stroke="none" 
	d="
M413.492798,228.882294 
	C413.850311,231.973724 413.573517,235.811813 415.267639,237.144501 
	C416.802673,238.352066 420.487366,236.582520 423.222626,236.592148 
	C425.140900,236.598877 427.056427,237.389511 429.174255,237.876297 
	C425.838318,243.679779 421.127808,245.490707 414.824615,243.928757 
	C409.421906,242.589966 405.621948,237.879730 405.517029,232.391647 
	C405.415405,227.074387 408.740021,222.634918 414.129089,220.891663 
	C420.316956,218.890030 425.396362,220.547791 428.978394,225.960632 
	C426.645111,227.602371 424.935638,229.916855 421.514313,226.934998 
	C418.909760,224.664993 415.879120,225.800339 413.492798,228.882294 
z"/>
<path fill="#F2B43B" opacity="1.000000" stroke="none" 
	d="
M294.527588,237.646149 
	C293.110870,241.443436 292.167328,245.364059 287.071320,243.949707 
	C285.847076,243.609924 284.280396,242.758682 283.813202,241.719269 
	C280.767242,234.942383 277.980804,228.048828 275.020752,220.981628 
	C279.703491,219.444183 282.559631,220.306061 283.946960,225.099472 
	C284.954041,228.579056 286.630432,231.864944 288.385864,236.161072 
	C290.206177,231.889526 291.975006,228.476486 293.117493,224.865311 
	C294.451538,220.648712 296.927002,219.414368 301.500214,220.903946 
	C299.228180,226.389832 296.968231,231.846436 294.527588,237.646149 
z"/>
<path fill="#F3B43C" opacity="1.000000" stroke="none" 
	d="
M334.056580,244.012482 
	C332.754242,243.284790 331.708435,242.687592 331.133362,241.789124 
	C330.753479,241.195633 331.044586,240.169281 331.044373,239.336731 
	C331.042816,233.216385 331.043549,227.096054 331.043549,221.118073 
	C336.103363,221.118073 340.689270,221.118073 345.581421,221.118073 
	C345.581421,222.346268 345.581421,224.117035 345.581421,225.879166 
	C338.030090,228.261185 338.068573,228.261551 337.966827,238.786392 
	C337.943909,241.155853 339.191284,244.615280 334.056580,244.012482 
z"/>
<path fill="#4E6F8E" opacity="1.000000" stroke="none" 
	d="
M236.592422,289.869904 
	C231.485901,286.097595 231.339386,280.258453 235.927460,278.237976 
	C240.144943,276.380707 243.578979,278.847656 244.085220,284.459320 
	C241.087738,284.632721 238.092590,284.805969 234.685120,285.003082 
	C236.652969,289.969116 240.155975,287.815308 243.088898,287.573181 
	C243.156921,288.043213 243.224930,288.513275 243.292953,288.983307 
	C241.184830,289.319244 239.076691,289.655182 236.592422,289.869904 
z"/>
<path fill="#476989" opacity="1.000000" stroke="none" 
	d="
M260.305664,276.732513 
	C260.305786,275.563477 260.305786,274.797607 260.305786,274.031738 
	C260.616699,273.971008 260.927582,273.910248 261.238495,273.849518 
	C261.689789,275.226624 262.141083,276.603760 262.596619,277.982117 
	C271.361725,277.563873 274.094452,281.471558 269.906738,289.881500 
	C269.906738,287.908295 270.368683,285.780029 269.773438,284.006622 
	C269.207367,282.320099 267.536469,281.004425 266.351349,279.525696 
	C264.933777,280.993164 263.025452,282.241943 262.244995,283.993347 
	C261.548615,285.556152 262.098633,287.674347 262.098633,289.547455 
	C261.500946,289.551483 260.903259,289.555481 260.305573,289.559509 
	C260.305573,285.418243 260.305573,281.276947 260.305664,276.732513 
z"/>
<path fill="#426586" opacity="1.000000" stroke="none" 
	d="
M228.619812,273.829834 
	C230.294754,273.938934 231.544281,274.047821 232.793793,274.156677 
	C232.809540,274.423462 232.825272,274.690247 232.841019,274.957062 
	C231.199219,275.301666 229.557419,275.646271 227.183685,276.144531 
	C227.183685,280.667053 227.183685,285.295776 227.183685,289.924469 
	C226.670883,289.936615 226.158066,289.948761 225.645264,289.960907 
	C225.645264,285.366486 225.645264,280.772034 225.645264,276.216614 
	C223.242172,275.680267 221.601028,275.313995 219.959869,274.947693 
	C219.980286,274.575012 220.000702,274.202301 220.021118,273.829620 
	C222.745544,273.829620 225.469971,273.829620 228.619812,273.829834 
z"/>
<path fill="#426586" opacity="1.000000" stroke="none" 
	d="
M333.976715,278.307281 
	C335.176910,278.307281 336.377136,278.307281 338.082550,278.307281 
	C338.082550,281.280121 338.473663,284.420227 337.957214,287.403198 
	C337.553436,289.735596 336.577759,292.909058 334.852509,293.831451 
	C332.758789,294.950836 329.610199,294.097198 326.918030,294.097198 
	C326.947113,293.468872 326.976227,292.840576 327.005310,292.212250 
	C328.746979,292.454712 330.493134,292.924255 332.229340,292.889832 
	C335.344971,292.828064 336.099854,291.499908 334.383972,288.615173 
	C333.957001,288.171997 333.945770,287.976685 334.146545,287.498199 
	C337.128937,284.473663 336.822693,281.959625 333.843475,279.311646 
	C333.917389,278.753662 333.947052,278.530457 333.976715,278.307281 
z"/>
<path fill="#446787" opacity="1.000000" stroke="none" 
	d="
M345.430298,285.396606 
	C346.212036,285.750977 347.235168,285.995575 347.354340,285.767609 
	C348.593323,283.397675 349.686859,280.951752 350.820770,278.526886 
	C351.276154,278.746948 351.731506,278.966980 352.186859,279.187012 
	C350.350647,283.253540 348.514435,287.320068 346.252991,292.328339 
	C344.007294,286.830902 342.285217,282.615326 340.563141,278.399719 
	C340.980530,278.210388 341.397919,278.021057 341.815277,277.831726 
	C342.960876,280.243622 344.106476,282.655548 345.430298,285.396606 
z"/>
<path fill="#476989" opacity="1.000000" stroke="none" 
	d="
M247.154388,286.887939 
	C245.222565,280.933167 248.123474,278.925690 254.221039,278.790192 
	C249.657272,279.879822 246.821259,282.157135 249.167633,285.906708 
	C250.229279,287.603241 253.705444,287.788818 255.978088,288.620331 
	C254.558182,291.333893 251.548325,291.275574 247.154388,286.887939 
z"/>
<path fill="#476989" opacity="1.000000" stroke="none" 
	d="
M278.942383,278.970947 
	C284.354309,276.676300 286.949829,278.061646 287.208191,283.458160 
	C287.311859,285.623993 287.225220,287.798950 287.225220,290.718933 
	C283.014923,287.275055 288.938354,279.697021 280.250336,279.504211 
	C279.468964,279.190796 279.221558,279.052460 278.942383,278.970947 
z"/>
<path fill="#3C6082" opacity="1.000000" stroke="none" 
	d="
M333.934540,287.781372 
	C333.945770,287.976685 333.957001,288.171997 333.977570,288.660553 
	C331.616730,288.470245 328.657471,288.664642 327.067322,287.283142 
	C325.849915,286.225494 325.372498,282.321014 326.332794,281.210480 
	C327.844452,279.462219 330.841095,278.998016 333.592896,278.148743 
	C333.947052,278.530457 333.917389,278.753662 333.487488,279.229767 
	C329.714142,279.022278 327.266724,280.390381 327.422516,283.842194 
	C327.598969,287.751251 330.627655,288.319092 333.934540,287.781372 
z"/>
<path fill="#476989" opacity="1.000000" stroke="none" 
	d="
M302.217438,286.974243 
	C298.744476,290.687836 294.779755,291.172424 292.089081,288.212219 
	C289.763458,285.653625 290.068817,282.567444 292.253326,280.594452 
	C292.961090,282.807617 293.195984,285.864624 294.828522,287.626862 
	C295.597412,288.456909 299.051147,286.799744 301.641724,286.390991 
	C302.069244,286.666290 302.143341,286.820251 302.217438,286.974243 
z"/>
<path fill="#4E6F8E" opacity="1.000000" stroke="none" 
	d="
M313.906860,287.707306 
	C316.049164,287.500885 318.957275,288.043640 320.108063,286.867279 
	C321.158539,285.793427 320.305359,282.857361 320.391663,280.215424 
	C320.646301,279.467194 320.800476,279.245544 320.954651,279.023865 
	C321.541931,281.697449 323.179504,284.698059 322.472443,286.968567 
	C321.389069,290.447754 317.864288,290.775635 314.318359,288.975037 
	C314.065033,288.128540 313.985931,287.917908 313.906860,287.707306 
z"/>
<path fill="#446787" opacity="1.000000" stroke="none" 
	d="
M307.544983,289.364685 
	C306.848785,289.288452 306.010773,288.836090 306.002045,288.368225 
	C305.907349,283.300140 305.942871,278.229584 305.942871,273.159729 
	C306.557983,273.128693 307.173096,273.097687 307.788208,273.066650 
	C307.788208,278.371552 307.788208,283.676453 307.544983,289.364685 
z"/>
<path fill="#3C6082" opacity="1.000000" stroke="none" 
	d="
M278.561829,278.871277 
	C279.221558,279.052460 279.468964,279.190796 279.812988,279.557068 
	C278.896912,283.067596 277.852448,286.407013 276.808014,289.746399 
	C276.534576,289.769226 276.261169,289.792023 275.987732,289.814819 
	C275.987732,286.219940 275.968506,282.624420 276.079865,279.033020 
	C276.083252,278.924225 277.450104,278.857758 278.561829,278.871277 
z"/>
<path fill="#EEF1F4" opacity="1.000000" stroke="none" 
	d="
M320.115540,279.837830 
	C317.391663,280.447815 315.044403,280.908783 312.731415,281.363007 
	C312.646149,277.824738 315.935059,276.582977 320.871094,278.820068 
	C320.800476,279.245544 320.646301,279.467194 320.115540,279.837830 
z"/>
<path fill="#EEF1F4" opacity="1.000000" stroke="none" 
	d="
M302.691406,281.907288 
	C300.211060,281.242859 297.760559,280.229492 295.310059,279.216125 
	C295.760437,278.548920 296.210785,277.881714 296.661133,277.214478 
	C298.681152,278.662445 300.701233,280.110382 302.691406,281.907288 
z"/>
<path fill="#EEF1F4" opacity="1.000000" stroke="none" 
	d="
M313.903839,287.393799 
	C313.985931,287.917908 314.065033,288.128540 314.074341,288.669312 
	C313.123016,288.277527 312.241425,287.555573 311.359833,286.833588 
	C312.206818,286.915833 313.053833,286.998077 313.903839,287.393799 
z"/>
<path fill="#476989" opacity="1.000000" stroke="none" 
	d="
M257.010010,280.368683 
	C256.969360,280.368744 257.050629,280.368622 257.010010,280.368683 
z"/>
<path fill="#EEF1F4" opacity="1.000000" stroke="none" 
	d="
M302.407043,286.847412 
	C302.143341,286.820251 302.069244,286.666290 301.997589,286.256104 
	C302.216614,285.851959 302.433228,285.704102 302.649841,285.556213 
	C302.632111,285.944336 302.614380,286.332428 302.407043,286.847412 
z"/>
<path fill="#446787" opacity="1.000000" stroke="none" 
	d="
M345.397400,292.994110 
	C345.451752,293.121704 345.506256,293.142334 345.560730,293.162933 
	C345.560638,293.050354 345.560547,292.937775 345.560455,292.825195 
	C345.506134,292.845825 345.451813,292.866486 345.397400,292.994110 
z"/>
<path fill="#FEFBF5" opacity="1.000000" stroke="none" 
	d="
M235.022186,229.499023 
	C232.328857,229.766174 230.021133,229.881226 227.265427,230.018600 
	C227.265427,226.392624 227.265427,223.056152 227.265427,219.349594 
	C231.417297,219.343399 235.890198,217.806137 238.340744,222.570312 
	C239.904816,225.611069 238.534576,228.013031 235.022186,229.499023 
z"/>
<path fill="#FEFBF5" opacity="1.000000" stroke="none" 
	d="
M264.859436,226.232727 
	C265.845795,227.294174 266.493927,228.162201 267.625793,229.678040 
	C263.611053,229.678040 260.356689,229.678040 256.694214,229.678040 
	C258.147156,225.192596 261.023041,224.935944 264.859436,226.232727 
z"/>
<path fill="#FEFBF5" opacity="1.000000" stroke="none" 
	d="
M446.516327,230.111008 
	C443.549957,230.115555 441.007355,230.115555 438.199799,230.115555 
	C440.711792,224.927414 445.171570,223.862564 447.869934,227.398651 
	C448.191162,227.819595 447.279999,229.180984 446.516327,230.111008 
z"/>
<path fill="#FEFAF3" opacity="1.000000" stroke="none" 
	d="
M309.614166,227.919983 
	C314.668945,224.151871 316.700623,224.488205 320.088959,229.906631 
	C316.394806,229.906631 313.092834,229.928238 309.794037,229.836288 
	C309.645142,229.832138 309.524872,228.800308 309.614166,227.919983 
z"/>
<path fill="#FEFAF3" opacity="1.000000" stroke="none" 
	d="
M364.262634,226.805847 
	C364.988190,227.871750 365.424103,228.687592 366.065674,229.888428 
	C362.173248,229.888428 358.799866,229.888428 355.357086,229.888428 
	C357.025085,225.180573 358.801788,224.528076 364.262634,226.805847 
z"/>
<path fill="#F4F6F8" opacity="1.000000" stroke="none" 
	d="
M334.146545,287.498199 
	C330.627655,288.319092 327.598969,287.751251 327.422516,283.842194 
	C327.266724,280.390381 329.714142,279.022278 333.443237,279.564575 
	C336.822693,281.959625 337.128937,284.473663 334.146545,287.498199 
z"/>
</svg>