<svg version="1.1" id="Layer_1" xmlns="http://www.w3.org/2000/svg" xmlns:xlink="http://www.w3.org/1999/xlink" x="0px" y="0px"
	 width="100%" viewBox="0 0 500 500" enable-background="new 0 0 500 500" xml:space="preserve">
<path fill="#19446C" opacity="1.000000" stroke="none" 
	d="
M275.000000,501.000000 
	C183.333359,501.000000 92.166710,501.000000 1.000049,501.000000 
	C1.000033,334.333405 1.000033,167.666794 1.000016,1.000138 
	C167.666565,1.000092 334.333130,1.000092 500.999756,1.000046 
	C500.999847,167.666519 500.999847,334.333038 500.999939,500.999786 
	C425.833344,501.000000 350.666656,501.000000 275.000000,501.000000 
M140.337204,388.896179 
	C140.034073,389.292603 139.694931,389.666718 139.433029,390.088715 
	C130.929672,403.791077 134.932678,420.626221 148.456116,428.064178 
	C161.896378,435.456390 178.166962,430.262787 184.943832,416.417267 
	C191.691742,402.630890 185.590393,386.560608 170.808762,380.488800 
	C167.160645,378.990265 167.751099,376.711121 167.753357,374.211700 
	C167.813065,307.886292 167.901505,241.560898 167.996552,175.235535 
	C167.998398,173.951019 168.138382,172.666702 168.215256,171.359680 
	C172.593063,171.359680 176.630280,171.359680 181.068390,171.359680 
	C181.068390,184.345581 181.068390,196.944412 181.068390,209.853363 
	C187.378815,209.853363 193.291534,209.853363 199.385284,209.853363 
	C199.529144,211.284454 199.742035,212.417404 199.742584,213.550446 
	C199.760498,250.715012 199.723312,287.879669 199.826630,325.043945 
	C199.834610,327.913818 198.745483,328.964691 196.246552,330.022766 
	C183.150848,335.567596 176.735443,348.939087 180.689896,361.897522 
	C184.341003,373.861938 195.257660,381.617920 207.460434,380.917175 
	C219.186325,380.243866 229.828629,371.154144 231.891235,360.050629 
	C234.262070,347.287659 228.141541,335.182587 216.248123,330.251801 
	C212.999832,328.905121 212.153519,327.368866 212.172119,324.094696 
	C212.480453,269.786469 212.670715,215.477585 212.899551,161.168884 
	C212.903564,160.213745 213.057068,159.259232 213.149948,158.200134 
	C217.021194,158.200134 220.575241,158.200134 224.649994,158.200134 
	C224.649994,175.160217 224.649994,191.763397 224.649994,208.947144 
	C231.396973,208.947144 237.629974,208.947144 244.255249,208.947144 
	C244.255249,211.333405 244.255234,213.139664 244.255234,214.945938 
	C244.255234,232.278290 244.159302,249.611603 244.331589,266.942230 
	C244.368576,270.661530 243.535767,272.646210 239.787857,274.350800 
	C227.405594,279.982361 221.879089,294.196655 226.413040,307.184631 
	C230.708725,319.490051 244.507843,326.810944 257.515808,323.685638 
	C268.752808,320.985840 276.693024,311.344330 277.303406,299.658447 
	C277.939301,287.483643 271.229401,277.086365 260.178833,273.112457 
	C258.821869,272.624451 257.476318,272.104767 256.653564,271.797180 
	C256.653564,227.011887 256.653564,182.759232 256.653564,138.360611 
	C260.788696,138.360611 264.333801,138.360611 268.412354,138.360611 
	C268.412354,161.956680 268.412354,185.198578 268.412354,208.980957 
	C275.177460,208.980957 281.417236,208.980957 287.817902,208.980957 
	C287.817902,283.824371 287.817902,358.115479 287.817902,432.522156 
	C276.183136,437.189758 268.769073,444.980408 268.833923,458.303741 
	C268.897858,471.443726 278.321350,482.687073 290.616119,484.160187 
	C305.211426,485.908936 317.182953,478.074188 320.596283,464.539642 
	C323.822205,451.748016 317.062317,438.231873 304.576294,433.811035 
	C300.521393,432.375336 299.931366,430.326935 299.937134,426.614136 
	C300.078003,335.621033 300.113556,244.627792 300.167816,153.634583 
	C300.168854,151.864929 300.167938,150.095276 300.167938,148.254715 
	C304.451263,148.254715 308.035522,148.254715 312.107544,148.254715 
	C312.107544,168.448746 312.107544,188.362305 312.107544,208.979156 
	C319.950745,208.979156 327.323303,208.979156 334.697601,208.979156 
	C334.814911,210.334717 334.920654,210.986923 334.920776,211.639145 
	C334.930908,263.636169 334.900940,315.633270 335.013123,367.630066 
	C335.019989,370.804443 333.675629,371.742401 331.040009,372.778290 
	C318.729797,377.616608 312.432495,389.829559 315.062164,403.192017 
	C317.355438,414.845154 328.289520,423.502045 340.742462,423.524048 
	C353.565002,423.546692 364.113953,414.897064 366.700684,402.239685 
	C369.146576,390.271515 362.593262,377.563934 350.941895,373.059174 
	C347.305420,371.653229 346.732635,369.823273 346.737000,366.521484 
	C346.805237,315.191162 346.784790,263.860687 346.784851,212.530273 
	C346.784851,205.088623 346.784851,197.646973 346.784851,190.246750 
	C351.337677,190.246750 355.045563,190.246750 359.199982,190.246750 
	C359.199982,196.574036 359.199982,202.498047 359.199982,208.864716 
	C373.616669,208.864716 387.640625,209.698151 401.531555,208.693283 
	C431.562164,206.520859 452.326019,178.329819 446.290771,149.023254 
	C441.829987,127.361931 424.229584,111.531906 402.163544,109.806847 
	C397.924835,109.475479 397.040924,107.932144 396.993774,104.051414 
	C396.935516,99.263145 396.355133,94.405060 395.350464,89.716393 
	C386.603577,48.895222 350.252899,18.340376 308.899261,17.602629 
	C274.080963,16.981474 247.164276,31.307186 227.992767,60.224731 
	C224.808655,65.027504 222.344528,70.307617 219.571625,75.323875 
	C218.840714,75.124413 218.335648,75.048111 217.881073,74.853767 
	C180.501755,58.873417 142.400589,72.686630 123.636101,109.140419 
	C122.279823,111.775246 120.947220,111.696671 118.216721,111.455505 
	C110.017921,110.731369 101.405090,109.214767 93.567345,110.885529 
	C67.524040,116.437141 51.695732,139.790131 55.175678,166.337723 
	C58.464771,191.429321 81.286728,209.663589 105.808884,209.054504 
	C120.299881,208.694580 134.804688,208.890259 149.303284,208.837967 
	C151.060593,208.831635 152.817932,208.837097 154.938171,208.837097 
	C154.938171,218.543961 154.938171,227.515533 154.938171,236.487122 
	C154.938156,282.317871 154.901337,328.148682 155.010071,373.979156 
	C155.018509,377.530823 154.400604,379.492737 150.692276,381.050507 
	C147.023407,382.591736 144.074341,385.846497 140.337204,388.896179 
z"/>
<path fill="#F1B034" opacity="1.000000" stroke="none" 
	d="
M140.573364,388.622894 
	C144.074341,385.846497 147.023407,382.591736 150.692276,381.050507 
	C154.400604,379.492737 155.018509,377.530823 155.010071,373.979156 
	C154.901337,328.148682 154.938156,282.317871 154.938171,236.487122 
	C154.938171,227.515533 154.938171,218.543961 154.938171,208.837097 
	C152.817932,208.837097 151.060593,208.831635 149.303284,208.837967 
	C134.804688,208.890259 120.299881,208.694580 105.808884,209.054504 
	C81.286728,209.663589 58.464771,191.429321 55.175678,166.337723 
	C51.695732,139.790131 67.524040,116.437141 93.567345,110.885529 
	C101.405090,109.214767 110.017921,110.731369 118.216721,111.455505 
	C120.947220,111.696671 122.279823,111.775246 123.636101,109.140419 
	C142.400589,72.686630 180.501755,58.873417 217.881073,74.853767 
	C218.335648,75.048111 218.840714,75.124413 219.571625,75.323875 
	C222.344528,70.307617 224.808655,65.027504 227.992767,60.224731 
	C247.164276,31.307186 274.080963,16.981474 308.899261,17.602629 
	C350.252899,18.340376 386.603577,48.895222 395.350464,89.716393 
	C396.355133,94.405060 396.935516,99.263145 396.993774,104.051414 
	C397.040924,107.932144 397.924835,109.475479 402.163544,109.806847 
	C424.229584,111.531906 441.829987,127.361931 446.290771,149.023254 
	C452.326019,178.329819 431.562164,206.520859 401.531555,208.693283 
	C387.640625,209.698151 373.616669,208.864716 359.199982,208.864716 
	C359.199982,202.498047 359.199982,196.574036 359.199982,190.246750 
	C355.045563,190.246750 351.337677,190.246750 346.784851,190.246750 
	C346.784851,197.646973 346.784851,205.088623 346.784851,212.530273 
	C346.784790,263.860687 346.805237,315.191162 346.737000,366.521484 
	C346.732635,369.823273 347.305420,371.653229 350.941895,373.059174 
	C362.593262,377.563934 369.146576,390.271515 366.700684,402.239685 
	C364.113953,414.897064 353.565002,423.546692 340.742462,423.524048 
	C328.289520,423.502045 317.355438,414.845154 315.062164,403.192017 
	C312.432495,389.829559 318.729797,377.616608 331.040009,372.778290 
	C333.675629,371.742401 335.019989,370.804443 335.013123,367.630066 
	C334.900940,315.633270 334.930908,263.636169 334.920776,211.639145 
	C334.920654,210.986923 334.814911,210.334717 334.697601,208.979156 
	C327.323303,208.979156 319.950745,208.979156 312.107544,208.979156 
	C312.107544,188.362305 312.107544,168.448746 312.107544,148.254715 
	C308.035522,148.254715 304.451263,148.254715 300.167938,148.254715 
	C300.167938,150.095276 300.168854,151.864929 300.167816,153.634583 
	C300.113556,244.627792 300.078003,335.621033 299.937134,426.614136 
	C299.931366,430.326935 300.521393,432.375336 304.576294,433.811035 
	C317.062317,438.231873 323.822205,451.748016 320.596283,464.539642 
	C317.182953,478.074188 305.211426,485.908936 290.616119,484.160187 
	C278.321350,482.687073 268.897858,471.443726 268.833923,458.303741 
	C268.769073,444.980408 276.183136,437.189758 287.817902,432.522156 
	C287.817902,358.115479 287.817902,283.824371 287.817902,208.980957 
	C281.417236,208.980957 275.177460,208.980957 268.412354,208.980957 
	C268.412354,185.198578 268.412354,161.956680 268.412354,138.360611 
	C264.333801,138.360611 260.788696,138.360611 256.653564,138.360611 
	C256.653564,182.759232 256.653564,227.011887 256.653564,271.797180 
	C257.476318,272.104767 258.821869,272.624451 260.178833,273.112457 
	C271.229401,277.086365 277.939301,287.483643 277.303406,299.658447 
	C276.693024,311.344330 268.752808,320.985840 257.515808,323.685638 
	C244.507843,326.810944 230.708725,319.490051 226.413040,307.184631 
	C221.879089,294.196655 227.405594,279.982361 239.787857,274.350800 
	C243.535767,272.646210 244.368576,270.661530 244.331589,266.942230 
	C244.159302,249.611603 244.255234,232.278290 244.255234,214.945938 
	C244.255234,213.139664 244.255249,211.333405 244.255249,208.947144 
	C237.629974,208.947144 231.396973,208.947144 224.649994,208.947144 
	C224.649994,191.763397 224.649994,175.160217 224.649994,158.200134 
	C220.575241,158.200134 217.021194,158.200134 213.149948,158.200134 
	C213.057068,159.259232 212.903564,160.213745 212.899551,161.168884 
	C212.670715,215.477585 212.480453,269.786469 212.172119,324.094696 
	C212.153519,327.368866 212.999832,328.905121 216.248123,330.251801 
	C228.141541,335.182587 234.262070,347.287659 231.891235,360.050629 
	C229.828629,371.154144 219.186325,380.243866 207.460434,380.917175 
	C195.257660,381.617920 184.341003,373.861938 180.689896,361.897522 
	C176.735443,348.939087 183.150848,335.567596 196.246552,330.022766 
	C198.745483,328.964691 199.834610,327.913818 199.826630,325.043945 
	C199.723312,287.879669 199.760498,250.715012 199.742584,213.550446 
	C199.742035,212.417404 199.529144,211.284454 199.385284,209.853363 
	C193.291534,209.853363 187.378815,209.853363 181.068390,209.853363 
	C181.068390,196.944412 181.068390,184.345581 181.068390,171.359680 
	C176.630280,171.359680 172.593063,171.359680 168.215256,171.359680 
	C168.138382,172.666702 167.998398,173.951019 167.996552,175.235535 
	C167.901505,241.560898 167.813065,307.886292 167.753357,374.211700 
	C167.751099,376.711121 167.160645,378.990265 170.808762,380.488800 
	C185.590393,386.560608 191.691742,402.630890 184.943832,416.417267 
	C178.166962,430.262787 161.896378,435.456390 148.456116,428.064178 
	C134.932678,420.626221 130.929672,403.791077 139.433029,390.088715 
	C139.694931,389.666718 140.034073,389.292603 140.573364,388.622894 
z"/>
</svg>